<svg width="26" height="26" viewBox="0 0 26 26" fill="none" xmlns="http://www.w3.org/2000/svg">
<mask id="path-1-outside-1_1_1286" maskUnits="userSpaceOnUse" x="0" y="0" width="26" height="26" fill="black">
<rect fill="white" width="26" height="26"/>
<path d="M21.8897 1.00001C22.1513 1.02394 22.3919 1.20665 22.4852 1.45221L24.9558 8.16911C24.9846 8.24657 24.9996 8.32912 24.9999 8.41175V12.2941C25.0052 12.667 24.667 13.01 24.2941 13.01C23.9211 13.01 23.5829 12.667 23.5882 12.2941V9.11763H2.41176V23.5882H23.5882V16.5294H14.7647V18.2941C14.7628 18.7946 14.1079 19.1555 13.6838 18.8897L9.80145 16.4191C9.40277 16.1654 9.40277 15.4816 9.80145 15.2279L13.6838 12.7573C13.8223 12.6664 13.9936 12.6266 14.1581 12.647C14.4934 12.6947 14.768 13.0142 14.7647 13.3529V15.1176H24.2941C24.6636 15.1177 24.9999 15.4539 24.9999 15.8235V24.2941C24.9999 24.6637 24.6636 24.9999 24.2941 24.9999H1.70588C1.33629 24.9999 1.00004 24.6637 0.999999 24.2941V8.41175C0.999884 8.35231 1.00732 8.29286 1.02206 8.23528L2.78676 1.51839C2.86844 1.222 3.16315 0.998594 3.47058 1.00001C9.6088 1.00001 15.7561 1.00001 21.8897 1.00001ZM21.3272 2.41177H14.0588V7.70587H23.2794L21.3272 2.41177ZM12.647 2.41177H4.01102L2.62132 7.70587H12.647V2.41177ZM13.3529 14.6323L11.4889 15.8235L13.3529 17.0147V14.6323Z"/>
</mask>
<path d="M21.8897 1.00001C22.1513 1.02394 22.3919 1.20665 22.4852 1.45221L24.9558 8.16911C24.9846 8.24657 24.9996 8.32912 24.9999 8.41175V12.2941C25.0052 12.667 24.667 13.01 24.2941 13.01C23.9211 13.01 23.5829 12.667 23.5882 12.2941V9.11763H2.41176V23.5882H23.5882V16.5294H14.7647V18.2941C14.7628 18.7946 14.1079 19.1555 13.6838 18.8897L9.80145 16.4191C9.40277 16.1654 9.40277 15.4816 9.80145 15.2279L13.6838 12.7573C13.8223 12.6664 13.9936 12.6266 14.1581 12.647C14.4934 12.6947 14.768 13.0142 14.7647 13.3529V15.1176H24.2941C24.6636 15.1177 24.9999 15.4539 24.9999 15.8235V24.2941C24.9999 24.6637 24.6636 24.9999 24.2941 24.9999H1.70588C1.33629 24.9999 1.00004 24.6637 0.999999 24.2941V8.41175C0.999884 8.35231 1.00732 8.29286 1.02206 8.23528L2.78676 1.51839C2.86844 1.222 3.16315 0.998594 3.47058 1.00001C9.6088 1.00001 15.7561 1.00001 21.8897 1.00001ZM21.3272 2.41177H14.0588V7.70587H23.2794L21.3272 2.41177ZM12.647 2.41177H4.01102L2.62132 7.70587H12.647V2.41177ZM13.3529 14.6323L11.4889 15.8235L13.3529 17.0147V14.6323Z" fill="#9F9F9F"/>
<path d="M21.8897 1.00001C22.1513 1.02394 22.3919 1.20665 22.4852 1.45221L24.9558 8.16911C24.9846 8.24657 24.9996 8.32912 24.9999 8.41175V12.2941C25.0052 12.667 24.667 13.01 24.2941 13.01C23.9211 13.01 23.5829 12.667 23.5882 12.2941V9.11763H2.41176V23.5882H23.5882V16.5294H14.7647V18.2941C14.7628 18.7946 14.1079 19.1555 13.6838 18.8897L9.80145 16.4191C9.40277 16.1654 9.40277 15.4816 9.80145 15.2279L13.6838 12.7573C13.8223 12.6664 13.9936 12.6266 14.1581 12.647C14.4934 12.6947 14.768 13.0142 14.7647 13.3529V15.1176H24.2941C24.6636 15.1177 24.9999 15.4539 24.9999 15.8235V24.2941C24.9999 24.6637 24.6636 24.9999 24.2941 24.9999H1.70588C1.33629 24.9999 1.00004 24.6637 0.999999 24.2941V8.41175C0.999884 8.35231 1.00732 8.29286 1.02206 8.23528L2.78676 1.51839C2.86844 1.222 3.16315 0.998594 3.47058 1.00001C9.6088 1.00001 15.7561 1.00001 21.8897 1.00001ZM21.3272 2.41177H14.0588V7.70587H23.2794L21.3272 2.41177ZM12.647 2.41177H4.01102L2.62132 7.70587H12.647V2.41177ZM13.3529 14.6323L11.4889 15.8235L13.3529 17.0147V14.6323Z" stroke="#9F9F9F" stroke-width="0.4" mask="url(#path-1-outside-1_1_1286)"/>
</svg>
