<svg width="39" height="33" viewBox="0 0 39 33" fill="none" xmlns="http://www.w3.org/2000/svg">
<path d="M35.4514 0.320802H7.55155C7.05684 0.320787 6.57054 0.448895 6.13985 0.692675C5.70915 0.936456 5.3487 1.28763 5.0935 1.71211C4.83829 2.13659 4.69699 2.61996 4.68332 3.11527C4.66965 3.61059 4.78407 4.10103 5.01548 4.53898L7.80588 9.83197H2.74637C2.42519 9.83148 2.10935 9.9143 1.8296 10.0723C1.54985 10.2304 1.31573 10.4583 1.15002 10.7339C0.984304 11.0095 0.892657 11.3233 0.88398 11.6449C0.875303 11.9665 0.9499 12.2848 1.10051 12.569L10.0771 29.5859C10.2353 29.8853 10.4719 30.1359 10.7617 30.3107C11.0514 30.4854 11.3832 30.5778 11.7214 30.5778C12.0596 30.5778 12.3914 30.4854 12.6811 30.3107C12.9708 30.1359 13.2075 29.8853 13.3657 29.5859L15.804 24.9888L18.8624 30.7881C19.106 31.2502 19.4706 31.637 19.9172 31.9071C20.3638 32.1771 20.8754 32.3201 21.3971 32.3208C21.9188 32.3214 22.4307 32.1797 22.878 31.9108C23.3253 31.6418 23.6909 31.2559 23.9356 30.7944L37.9202 4.43581C38.1471 4.00913 38.2598 3.53087 38.2473 3.0476C38.2348 2.56433 38.0976 2.09254 37.849 1.67817C37.6004 1.2638 37.2489 0.920992 36.8287 0.683118C36.4086 0.445244 35.934 0.320414 35.4514 0.320802V0.320802ZM22.9193 11.5847L16.8897 22.9539C16.7844 23.153 16.6269 23.3197 16.4341 23.4359C16.2413 23.5521 16.0206 23.6136 15.7956 23.6136C15.5706 23.6136 15.3498 23.5521 15.1571 23.4359C14.9643 23.3197 14.8068 23.153 14.7015 22.9539L8.72972 11.6342C8.62976 11.4454 8.58018 11.234 8.58581 11.0204C8.59143 10.8068 8.65206 10.5983 8.76181 10.4151C8.87157 10.2319 9.02671 10.0802 9.21223 9.97467C9.39774 9.86919 9.60733 9.8135 9.82065 9.81301H21.8567C22.0646 9.81299 22.2689 9.86686 22.4498 9.96937C22.6308 10.0719 22.7821 10.2195 22.8892 10.398C22.9963 10.5765 23.0554 10.7796 23.0609 10.9878C23.0663 11.1959 23.0179 11.4019 22.9203 11.5858L22.9193 11.5847Z" fill="#F71963"/>
</svg>
